<svg xmlns="http://www.w3.org/2000/svg" viewBox="0 0 520 520" fill="none">
  <title>Gold jasmine corner ornament</title>
  <g stroke="#A67C2D" stroke-linecap="round" stroke-linejoin="round">
    <path d="M42 478C96 374 183 287 302 218C365 181 419 136 478 42" stroke-width="5"/>
    <path d="M75 392C141 394 199 373 249 330" stroke-width="4"/>
    <path d="M138 305C204 313 262 299 313 261" stroke-width="4"/>
    <path d="M232 242C285 251 337 240 388 208" stroke-width="4"/>
    <path d="M354 132C362 181 347 222 309 256" stroke-width="4"/>
    <path d="M434 62C443 116 424 161 376 198" stroke-width="4"/>
  </g>
  <g fill="#123C2F" fill-opacity=".74" stroke="#A67C2D" stroke-width="3" stroke-linejoin="round">
    <path d="M93 385C127 363 165 360 206 376C175 405 137 408 93 385Z"/>
    <path d="M157 303C194 284 233 285 273 307C238 332 199 331 157 303Z"/>
    <path d="M253 240C285 223 319 222 355 238C323 263 289 264 253 240Z"/>
    <path d="M349 146C375 174 383 208 373 250C341 222 333 188 349 146Z"/>
    <path d="M425 77C453 108 459 144 442 187C410 154 405 118 425 77Z"/>
  </g>
  <g>
    <g transform="translate(48 342)">
      <path d="M51 34C51 61 31 78 11 70C-10 63-2 38 24 34C-2 30-10 5 11-2C31-10 51 7 51 34Z" fill="#FFF8EA" stroke="#C9A24D" stroke-width="4"/>
      <path d="M51 34C72 16 97 22 102 43C107 64 80 72 51 34Z" fill="#F8EED8" stroke="#C9A24D" stroke-width="4"/>
      <circle cx="51" cy="34" r="8" fill="#C9A24D"/>
    </g>
    <g transform="translate(142 258) rotate(-10)">
      <path d="M44 29C44 52 27 67 10 61C-8 55-2 32 21 29C-2 26-8 4 10-2C27-8 44 6 44 29Z" fill="#FFF8EA" stroke="#C9A24D" stroke-width="4"/>
      <path d="M44 29C62 14 83 19 88 37C92 56 69 63 44 29Z" fill="#F8EED8" stroke="#C9A24D" stroke-width="4"/>
      <circle cx="44" cy="29" r="7" fill="#C9A24D"/>
    </g>
    <g transform="translate(260 195) rotate(12)">
      <path d="M40 27C40 48 25 61 9 56C-7 50-2 30 19 27C-2 24-7 4 9-2C25-8 40 6 40 27Z" fill="#FFF8EA" stroke="#C9A24D" stroke-width="3.5"/>
      <path d="M40 27C57 13 77 18 81 35C85 52 64 58 40 27Z" fill="#F8EED8" stroke="#C9A24D" stroke-width="3.5"/>
      <circle cx="40" cy="27" r="6.5" fill="#C9A24D"/>
    </g>
    <g transform="translate(376 70) rotate(28)">
      <path d="M47 31C47 56 29 72 10 65C-9 59-2 35 22 31C-2 28-9 4 10-2C29-9 47 7 47 31Z" fill="#FFF8EA" stroke="#C9A24D" stroke-width="4"/>
      <path d="M47 31C66 15 90 20 95 40C100 60 74 67 47 31Z" fill="#F8EED8" stroke="#C9A24D" stroke-width="4"/>
      <circle cx="47" cy="31" r="7.5" fill="#C9A24D"/>
    </g>
  </g>
</svg>
